<svg width="461" height="133" viewBox="0 0 461 133" fill="none" xmlns="http://www.w3.org/2000/svg">
<path fill-rule="evenodd" clip-rule="evenodd" d="M36.5 98.25V41.25L58.5 50.75V68.75L66.5 74.25L74.5 68.75V50.75L96.5 41.25V98.25L113 88.25V28.75L96.5 19.75L66.5 34.25L36.5 19.75L20 28.75V88.25L36.5 98.25Z" fill="#006AF5"/>
<path fill-rule="evenodd" clip-rule="evenodd" d="M59 89.75V87.75L67 93.25L75 87.75V89.75V105.75V107.75L67 113.25L59 107.75V105.75V89.75Z" fill="#FF6C0A"/>
<path d="M151.928 70.372C151.928 71.268 151.872 72.2013 151.76 73.172H130.088C130.237 75.1133 130.853 76.6067 131.936 77.652C133.056 78.66 134.419 79.164 136.024 79.164C138.413 79.164 140.075 78.156 141.008 76.14H151.2C150.677 78.1933 149.725 80.0413 148.344 81.684C147 83.3267 145.301 84.6147 143.248 85.548C141.195 86.4813 138.899 86.948 136.36 86.948C133.299 86.948 130.573 86.2947 128.184 84.988C125.795 83.6813 123.928 81.8147 122.584 79.388C121.24 76.9613 120.568 74.124 120.568 70.876C120.568 67.628 121.221 64.7907 122.528 62.364C123.872 59.9373 125.739 58.0707 128.128 56.764C130.517 55.4573 133.261 54.804 136.36 54.804C139.384 54.804 142.072 55.4387 144.424 56.708C146.776 57.9773 148.605 59.788 149.912 62.14C151.256 64.492 151.928 67.236 151.928 70.372ZM142.128 67.852C142.128 66.2093 141.568 64.9027 140.448 63.932C139.328 62.9613 137.928 62.476 136.248 62.476C134.643 62.476 133.28 62.9427 132.16 63.876C131.077 64.8093 130.405 66.1347 130.144 67.852H142.128ZM176.58 54.916C180.238 54.916 183.15 56.1107 185.316 58.5C187.518 60.852 188.62 64.1 188.62 68.244V86.5H179.1V69.532C179.1 67.4413 178.558 65.8173 177.476 64.66C176.393 63.5027 174.937 62.924 173.108 62.924C171.278 62.924 169.822 63.5027 168.74 64.66C167.657 65.8173 167.116 67.4413 167.116 69.532V86.5H157.54V55.252H167.116V59.396C168.086 58.0147 169.393 56.932 171.036 56.148C172.678 55.3267 174.526 54.916 176.58 54.916ZM213.25 78.38V86.5H208.378C204.906 86.5 202.2 85.66 200.258 83.98C198.317 82.2627 197.346 79.4813 197.346 75.636V63.204H193.538V55.252H197.346V47.636H206.922V55.252H213.194V63.204H206.922V75.748C206.922 76.6813 207.146 77.3533 207.594 77.764C208.042 78.1747 208.789 78.38 209.834 78.38H213.25ZM233.368 86.948C230.307 86.948 227.544 86.2947 225.08 84.988C222.654 83.6813 220.731 81.8147 219.312 79.388C217.931 76.9613 217.24 74.124 217.24 70.876C217.24 67.6653 217.95 64.8467 219.368 62.42C220.787 59.956 222.728 58.0707 225.192 56.764C227.656 55.4573 230.419 54.804 233.48 54.804C236.542 54.804 239.304 55.4573 241.768 56.764C244.232 58.0707 246.174 59.956 247.592 62.42C249.011 64.8467 249.72 67.6653 249.72 70.876C249.72 74.0867 248.992 76.924 247.536 79.388C246.118 81.8147 244.158 83.6813 241.656 84.988C239.192 86.2947 236.43 86.948 233.368 86.948ZM233.368 78.66C235.198 78.66 236.747 77.988 238.016 76.644C239.323 75.3 239.976 73.3773 239.976 70.876C239.976 68.3747 239.342 66.452 238.072 65.108C236.84 63.764 235.31 63.092 233.48 63.092C231.614 63.092 230.064 63.764 228.832 65.108C227.6 66.4147 226.984 68.3373 226.984 70.876C226.984 73.3773 227.582 75.3 228.776 76.644C230.008 77.988 231.539 78.66 233.368 78.66ZM264.936 60.46C266.056 58.7427 267.456 57.3987 269.136 56.428C270.816 55.42 272.683 54.916 274.736 54.916V65.052H272.104C269.715 65.052 267.923 65.5747 266.728 66.62C265.534 67.628 264.936 69.42 264.936 71.996V86.5H255.36V55.252H264.936V60.46ZM326.349 47.188V86.5H316.773V70.316H301.877V86.5H292.301V47.188H301.877V62.588H316.773V47.188H326.349ZM338.638 52.004C336.958 52.004 335.576 51.5187 334.494 50.548C333.448 49.54 332.926 48.308 332.926 46.852C332.926 45.3587 333.448 44.1267 334.494 43.156C335.576 42.148 336.958 41.644 338.638 41.644C340.28 41.644 341.624 42.148 342.67 43.156C343.752 44.1267 344.294 45.3587 344.294 46.852C344.294 48.308 343.752 49.54 342.67 50.548C341.624 51.5187 340.28 52.004 338.638 52.004ZM343.398 55.252V86.5H333.822V55.252H343.398ZM369.937 54.916C373.596 54.916 376.508 56.1107 378.673 58.5C380.876 60.852 381.977 64.1 381.977 68.244V86.5H372.457V69.532C372.457 67.4413 371.916 65.8173 370.833 64.66C369.751 63.5027 368.295 62.924 366.465 62.924C364.636 62.924 363.18 63.5027 362.097 64.66C361.015 65.8173 360.473 67.4413 360.473 69.532V86.5H350.897V55.252H360.473V59.396C361.444 58.0147 362.751 56.932 364.393 56.148C366.036 55.3267 367.884 54.916 369.937 54.916ZM406.608 78.38V86.5H401.736C398.264 86.5 395.557 85.66 393.616 83.98C391.674 82.2627 390.704 79.4813 390.704 75.636V63.204H386.896V55.252H390.704V47.636H400.28V55.252H406.552V63.204H400.28V75.748C400.28 76.6813 400.504 77.3533 400.952 77.764C401.4 78.1747 402.146 78.38 403.192 78.38H406.608ZM425.214 86.948C422.488 86.948 420.062 86.4813 417.934 85.548C415.806 84.6147 414.126 83.3453 412.894 81.74C411.662 80.0973 410.971 78.268 410.822 76.252H420.286C420.398 77.3347 420.902 78.212 421.798 78.884C422.694 79.556 423.795 79.892 425.102 79.892C426.296 79.892 427.211 79.668 427.846 79.22C428.518 78.7347 428.854 78.1187 428.854 77.372C428.854 76.476 428.387 75.8227 427.454 75.412C426.52 74.964 425.008 74.4787 422.918 73.956C420.678 73.4333 418.811 72.892 417.318 72.332C415.824 71.7347 414.536 70.82 413.454 69.588C412.371 68.3187 411.83 66.62 411.83 64.492C411.83 62.7 412.315 61.076 413.286 59.62C414.294 58.1267 415.75 56.9507 417.654 56.092C419.595 55.2333 421.891 54.804 424.542 54.804C428.462 54.804 431.542 55.7747 433.782 57.716C436.059 59.6573 437.366 62.2333 437.702 65.444H428.854C428.704 64.3613 428.219 63.5027 427.398 62.868C426.614 62.2333 425.568 61.916 424.262 61.916C423.142 61.916 422.283 62.14 421.686 62.588C421.088 62.9987 420.79 63.5773 420.79 64.324C420.79 65.22 421.256 65.892 422.19 66.34C423.16 66.788 424.654 67.236 426.67 67.684C428.984 68.2813 430.87 68.8787 432.326 69.476C433.782 70.036 435.051 70.9693 436.134 72.276C437.254 73.5453 437.832 75.2627 437.87 77.428C437.87 79.2573 437.347 80.9 436.302 82.356C435.294 83.7747 433.819 84.8947 431.878 85.716C429.974 86.5373 427.752 86.948 425.214 86.948Z" fill="black"/>
</svg>
